HIERARCHY
ROOT Hips
{
    OFFSET 13.370134353637695 94.31426239013672 -18.368906021118164
    CHANNELS 6 Xposition Yposition Zposition Zrotation Xrotation Yrotation
    JOINT RightUpLeg
    {
        OFFSET -13.370134353637695 0.0 0.0
        CHANNELS 3 Zrotation Xrotation Yrotation
        JOINT RightLeg
        {
            OFFSET 0.0 -48.391998291015625 0.0
            CHANNELS 3 Zrotation Xrotation Yrotation
            JOINT RightFoot
            {
                OFFSET 0.0 -45.922264099121094 0.0
                CHANNELS 3 Zrotation Xrotation Yrotation
                End Site
                {
                    OFFSET 0.0 0.0 18.368906021118164
                }
            }
        }
    }
    JOINT LeftUpLeg
    {
        OFFSET 13.370134353637695 0.0 0.0
        CHANNELS 3 Zrotation Xrotation Yrotation
        JOINT LeftLeg
        {
            OFFSET 0.0 -48.391998291015625 0.0
            CHANNELS 3 Zrotation Xrotation Yrotation
            JOINT LeftFoot
            {
                OFFSET 0.0 -45.922264099121094 0.0
                CHANNELS 3 Zrotation Xrotation Yrotation
                End Site
                {
                    OFFSET 0.0 0.0 18.368906021118164
                }
            }
        }
    }
    JOINT Spine
    {
        OFFSET 0.0 25.633546829223633 0.0
        CHANNELS 3 Zrotation Xrotation Yrotation
        JOINT Spine3
        {
            OFFSET 0.0 25.646732330322266 0.0
            CHANNELS 3 Zrotation Xrotation Yrotation
            JOINT Neck
            {
                OFFSET 0.0 11.566635131835938 0.0
                CHANNELS 3 Zrotation Xrotation Yrotation
                End Site
                {
                    OFFSET 0.0 4.626654624938965 0.0
                }
            }
            JOINT LeftArm
            {
                OFFSET 14.186542510986328 0.0 0.0
                CHANNELS 3 Zrotation Xrotation Yrotation
                JOINT LeftForeArm
                {
                    OFFSET 26.16762924194336 0.0 0.0
                    CHANNELS 3 Zrotation Xrotation Yrotation
                    JOINT LeftHand
                    {
                        OFFSET 22.860599517822266 0.0 0.0
                        CHANNELS 3 Zrotation Xrotation Yrotation
                        End Site
                        {
                            OFFSET 9.14423942565918 0.0 0.0
                        }
                    }
                }
            }
            JOINT RightArm
            {
                OFFSET -14.186542510986328 0.0 0.0
                CHANNELS 3 Zrotation Xrotation Yrotation
                JOINT RightForeArm
                {
                    OFFSET -26.16762924194336 0.0 0.0
                    CHANNELS 3 Zrotation Xrotation Yrotation
                    JOINT RightHand
                    {
                        OFFSET -22.860599517822266 0.0 0.0
                        CHANNELS 3 Zrotation Xrotation Yrotation
                        End Site
                        {
                            OFFSET -9.14423942565918 0.0 0.0
                        }
                    }
                }
            }
        }
    }
}
MOTION
Frames: 9
Frame Time: 0.03333333333333333
-9.692612366052344e-05 95.36082458496094 -0.001155681791715324 5.7207580574888475 -14.522595763680116 4.98141500687539 -3.0994964752663843 8.450427564369974 -0.16718805528284927 -22.673335062767126 41.69294521049205 14.730965691859309 0.0 0.0 -7.951386703658792e-16 0.8928729738922453 13.224355490404879 -1.1787088919055975 -6.331385208614416 20.594016772534072 0.46284635932493134 3.9756933518293955e-16 -1.2069275033730902e-33 -3.478731682850721e-16 -0.9201872851420917 9.026925948427223 -0.5211388971542487 -4.83082560890787e-07 5.536172210035453e-07 -1.0038965915559588 7.141584672852244 16.61908717212394 162.02545720141572 160.05839887404636 41.829706854456695 -134.85181242562163 -2.7523064973402964e-06 1.1296264812491649e-07 105.44619196091345 0.0 0.0 0.0 -159.22779409517136 41.208391387941894 121.99255351520502 -2.1598159953514744e-06 6.110124228739613e-06 -74.31564216935057 0.0 0.0 6.3611093629270335e-15
-7.463786459993571e-05 95.36087799072266 -0.0011274892603978515 5.817876583348881 -14.198071829059964 6.269317707115407 -2.3588355939361176 7.927617623406476 -0.25526588685916485 -23.66934708509018 41.92901642635426 15.005959608468277 -4.275971726236091e-32 -6.1623246953355635e-15 -7.951386703658792e-16 1.0616534609192239 13.03729850507861 -1.1940312015220584 -5.947220537761171 19.58809496937222 0.2653616742369293 -1.9878466759146977e-16 -8.189865201460255e-34 4.721135855297406e-16 -1.5075969940734903 8.879419780103674 -0.41723578304982606 2.6235093153110396e-07 3.323479265718231e-07 -0.47217239369062536 6.518070411308788 17.40785541490479 161.13290694147346 159.4991275240946 41.05968652847284 -133.46143712492074 2.4223786753013033e-06 2.068324088761193e-06 105.43062754333401 0.0 0.0 0.0 -160.75208556419418 42.10828451695952 121.81178899458719 3.7419147865907703e-07 2.3628451053783303e-06 -72.34870084806957 0.0 0.0 0.0
-8.961091953096911e-05 95.36085510253906 -0.0011294385185465217 5.805777155161537 -13.498200192435517 7.216982927696834 -1.803667979775774 7.069906391959962 -0.29649226014985774 -23.598078423401734 42.32382569438026 14.658625917572316 0.0 0.0 7.951386703658792e-16 1.1083850579589143 12.428297412012284 -1.1501112427681086 -5.644410894433334 19.091767150779166 0.14005199024558676 3.9756933518293955e-16 3.1805546814635164e-15 -2.4848083448933737e-17 -2.0815819075195523 8.414453111654808 -0.3117953660968879 -1.2368676169876094e-07 1.1671787810640521e-07 -0.09497829685202866 6.55961188278212 18.229715169022388 160.94612520091982 157.90464758050535 40.31024988773598 -130.44259934078516 -1.611886776352256e-06 -1.7515421364727584e-06 103.04595858984068 0.0 0.0 0.0 -161.4953934813994 42.49611999988156 120.99844662857711 1.088309301343376e-06 8.619488292697151e-06 -70.11551781223146 0.0 -3.1805546814635164e-15 0.0
-6.003551970934495e-05 95.36082458496094 -0.0011095674708485603 5.65641655773926 -12.915514849696331 8.618119328048948 -0.9966641905639569 6.275833009752615 -0.3104778193603247 -23.726990072110056 42.64841394058283 14.525758313617724 0.0 6.1623246953355635e-15 0.0 1.7379462241337444 11.753227773685277 -1.140273698539532 -5.372096613314473 18.776848687053064 -0.03328986904185455 1.0345092886055059e-32 -3.1805546814635168e-15 3.7272125173400585e-16 -2.6931395730263947 7.992219421983896 -0.1585754238910161 -4.152797432899948e-08 3.554455069672309e-08 0.22104347547326697 7.511783304159079 19.221206991532792 160.22530807415643 156.8589269167609 38.36487809090884 -127.80760138208827 -4.851388558270933e-06 -8.300993364837372e-07 99.91590835127373 0.0 0.0 -6.3611093629270335e-15 -161.606111361622 42.91076741466512 120.22350367753002 2.754292074672476e-06 -3.5298923394152165e-06 -66.5782812107634 0.0 9.541664044390549e-15 0.0
-5.231845716480166e-05 95.36077117919922 -0.0010932107688859105 5.345547651013926 -12.522354993185958 9.819701823026868 -0.0849981074201364 5.344182455398238 -0.3085971301780747 -24.077663755266002 43.027520120396524 14.536632120587594 -3.1805546814635176e-15 0.0 0.0 2.6576481328148156 11.159831216454688 -1.1766597612961756 -5.252101637263108 18.655275848360894 -0.2247296025921988 9.939233379573489e-17 3.0173187584327256e-34 3.478731682850721e-16 -3.154132167688787 7.745068403480309 -0.031893428081465114 7.518427562202562e-08 1.7513160435390082e-07 0.5779518255716529 7.973267612553484 20.35580650364319 159.59479408689108 155.97824478909982 37.77548001402358 -126.28307625774796 4.471836461553852e-06 3.0503333085545495e-06 98.09480547961634 0.0 0.0 0.0 -159.72209187124687 43.85733980028003 118.29344287167754 1.232867411703073e-06 3.0696105404986156e-06 -63.00646718222321 0.0 0.0 -6.3611093629270335e-15
-5.6874116125982255e-05 95.3607406616211 -0.0010999275837093592 4.985764070474449 -12.203426744151058 10.928021888767043 0.6595833058724322 4.883329341567156 -0.31476755054886224 -23.069003263359676 43.23402959562633 13.573304314489365 -3.1805546814635168e-15 6.3611093629270335e-15 -2.3854160110976376e-15 3.529012775659169 9.981770976476906 -1.1427780890794206 -5.001721553059406 19.39743761142921 -0.4903259833880836 1.0689929315590228e-32 3.1805546814635176e-15 -3.851452934584728e-16 -3.5286473177349125 7.674813536379785 0.06689858977329662 2.363446621506799e-08 -1.1342542349091363e-09 1.1603925139776428 8.794357962562733 20.935450884443227 159.08527397071916 156.3772644644615 37.28636219628861 -125.61040233500606 3.229389674982915e-07 2.8647833178362757e-06 96.01763018922293 3.1805546814635164e-15 1.7655625192200634e-31 6.361109362927033e-15 -157.74551699612343 44.87251574522676 117.02485211485364 -2.3050412291819244e-06 6.157154592178076e-07 -61.05772520083076 -1.7655625192200634e-31 3.1805546814635168e-15 6.3611093629270335e-15
-9.871942165773362e-05 95.36064147949219 -0.0011040425160899758 4.594288040217781 -12.018489630769638 11.666071426814243 1.2455210348808683 4.5540769235065 -0.3158165215417798 -22.126188494963444 42.83915933170516 12.596634446417829 0.0 0.0 -1.5902773407317582e-15 4.476179300910319 9.01462596125885 -1.1346203513035076 -4.711149786494125 20.269324164628554 -0.8375772935680211 6.21202086223343e-17 -1.0228912643682371e-33 -1.8869013369034043e-15 -3.918670385329314 7.9368945035100475 0.1654855151237996 5.9421176824566765e-08 -1.8360788907472036e-07 1.601476868568774 8.496094594946396 21.337972902939182 158.52021941051075 156.39646737739872 36.90109162140941 -125.15287930655833 1.4898349864229366e-08 -1.0242393490962522e-06 94.32710066639024 0.0 0.0 0.0 -157.41013410166488 45.78184190419338 117.49048449785316 -2.6784102544715824e-06 5.3719022702120405e-06 -61.02063084922705 -6.361109362927033e-15 3.531125038440127e-31 -6.361109362927033e-15
-0.00015024020103737712 95.36052703857422 -0.0010997885838150978 4.2259462242995065 -11.789302874877293 12.193461781185707 1.706732904371985 4.274607738703753 -0.31766552339211257 -20.424347532459297 42.6682941079946 11.143813031125351 3.1805546814635168e-15 -3.975693351829396e-16 7.951386703658792e-16 5.46720728586844 7.605218485519292 -1.0678244670824353 -5.119211530115192 21.937472998823026 -1.0617355375398017 2.484808344893373e-17 -7.765026077791791e-19 3.1370705354278834e-16 -4.171826278681521 8.457477753861044 0.23962235815425204 -1.4937824952587088e-08 -1.2218286290722252e-08 1.7493428178291175 8.44331342746697 21.14326077431976 158.67423430759905 156.26401682514896 36.414972464108736 -125.01021728390212 4.438222339210858e-06 3.7912274640188023e-06 93.42728120517388 3.1805546814635164e-15 -6.361109362927033e-15 1.7655625192200634e-31 -158.13416450368896 46.39672211686804 118.67476163508297 2.7969650451451404e-07 2.879021082209021e-06 -61.74217631369875 1.7655625192200634e-31 -3.1805546814635168e-15 6.3611093629270335e-15
-0.00013246362505014986 95.36046600341797 -0.001107034389860928 3.849252208355371 -11.254542396538971 12.512112256487542 1.8721621276063543 4.120797017662321 -0.30127968467617466 -18.830569346061186 41.93551278908106 9.928359489742986 -1.5902773407317588e-15 3.975693351829397e-16 -1.5902773407317588e-15 6.590887322478445 5.69349280952935 -0.8907932818233714 -5.378814510134118 23.479217726331697 -1.3956493718352265 -4.9696166897867443e-17 6.2120208622334304e-18 6.21202086223343e-16 -4.369888642308884 8.94028965357704 0.3199673508763895 -1.266095483140214e-07 6.41839312363038e-08 1.7727415701172664 8.080418360286558 20.95895953040797 158.27281988856424 155.20565236799035 36.4586375933398 -124.6210953196352 4.643058894895287e-07 -6.993273550512858e-07 93.41265261644652 0.0 -3.1805546814635168e-15 0.0 -159.47022818310947 46.72201885855247 120.53283954692921 1.0644440314924305e-06 -4.243585038757617e-07 -62.86084475594538 -1.7655625192200634e-31 3.1805546814635168e-15 6.3611093629270335e-15
